<svg width="781" height="781" viewBox="0 0 781 781" fill="none" xmlns="http://www.w3.org/2000/svg">
<g id="pussy">
<g id="Keyboard">
<path id="Rectangle 8" d="M267 470L396 532L329 571L203 507L267 470Z" fill="#EEDEC8"/>
<g id="Group 2">
<path id="Rectangle 6" d="M270 467L341 502L288 529L217 494L270 467Z" fill="#565656"/>
<path id="Rectangle 7" d="M217 494L288 529V539L217 504V494Z" fill="#4D4D4D"/>
</g>
<path id="Rectangle 8_2" d="M288 529L341 502V512L288 539V529Z" fill="#454545"/>
<path id="Rectangle 12" d="M203 507L329 571V586L203 521V507Z" fill="#DBC6B5"/>
<path id="Rectangle 13" d="M329 571L396 532V545L329 586V571Z" fill="#C6B5A4"/>
<path id="Vector 11" d="M297 539.5L288 539L341 512V509L349 513L297 539.5Z" fill="#B4A999"/>
<g id="Group 1">
<path id="Rectangle 9" d="M353 510L377 522L327 550L300 536L353 510Z" fill="#565656"/>
<path id="Rectangle 10" d="M300 536L327 550V560L300 545V536Z" fill="#4D4D4D"/>
<path id="Rectangle 11" d="M327 550L377 522V531L327 560V550Z" fill="#454545"/>
</g>
<path id="Vector 12" d="M335 560H327L377 531V527.5L385 531L335 560Z" fill="#B4A999"/>
<path id="Vector 13" d="M350 585.5L329 586L396 545V541L410 547L350 585.5Z" fill="#65504D"/>
</g>
<g id="Computer">
<path id="Vector 2" d="M565 262L433 328V512L565 446V403V262Z" fill="#C6B5A4"/>
<path id="Vector 3" d="M547 468V455L433 512V525L547 468Z" fill="#BCAC9C"/>
<path id="Vector 4" d="M465 525H433L547 468V455L551 453L578 467L465 525Z" fill="#65504D"/>
<path id="Vector 5" d="M300 403V262L305 264V400L300 403Z" fill="#C6B5A4"/>
<path id="Vector 6" d="M300 403L305 400L433 463V470L300 403Z" fill="#EEDEC8"/>
<path id="Vector 9" d="M314 396V274L328 282V388L314 396Z" fill="#454545"/>
<path id="Vector 10" d="M429 438L328 388L314 395L429 452V438Z" fill="#565656"/>
<path id="Subtract" fill-rule="evenodd" clip-rule="evenodd" d="M305 263V399.68L434 464V327.523L305 263ZM316 280L315.498 393.335L428 451V335L316 280Z" fill="#4D4D4D"/>
<path id="Rectangle 1" d="M327 284L429 334.5V440.5L327 390V284Z" fill="#282828"/>
<path id="Vector 1" d="M433 196L300 262L433 328.5L565 262L433 196Z" fill="#EEDEC8"/>
<path id="Rectangle 2" d="M300 403L433 470V513L300 446V403Z" fill="#DBC6B5"/>
<path id="Rectangle 3" d="M309 418L424 475L423.847 497.915L309 440.042V418Z" fill="#9E7063"/>
<path id="Rectangle 4" d="M319 431L346 445V450L319 436V431Z" fill="#282828"/>
<path id="Rectangle 5" d="M318 454.5L433 511.5V524.5L318 467.5V454.5Z" fill="#D0BCAC"/>
</g>
<g id="bussy">
<path id="progressbar-horny" d="M356 345L376 356V365L356 355V345Z" fill="#4DC255"/>
<path id="progressbar-outline" d="M356.5 354.691V345.809L403.5 369.309V378.191L356.5 354.691Z" stroke="#4DC255"/>
</g>
</g>
</svg>
