<svg width="338" height="351" viewBox="0 0 338 351" fill="none" xmlns="http://www.w3.org/2000/svg">
<g id="cummie">
<g id="Keyboard">
<path id="Rectangle 8" d="M57.6 246.6L173.7 302.4L113.4 337.5L0 279.9L57.6 246.6Z" fill="#EEDEC8"/>
<g id="Group 2">
<path id="Rectangle 6" d="M60.3 243.9L124.2 275.4L76.5 299.7L12.6 268.2L60.3 243.9Z" fill="#565656"/>
<path id="Rectangle 7" d="M12.6 268.2L76.5 299.7V308.7L12.6 277.2V268.2Z" fill="#4D4D4D"/>
</g>
<path id="Rectangle 8_2" d="M76.5 299.7L124.2 275.4V284.4L76.5 308.7V299.7Z" fill="#454545"/>
<path id="Rectangle 12" d="M0 279.9L113.4 337.5V351L0 292.5V279.9Z" fill="#DBC6B5"/>
<path id="Rectangle 13" d="M113.4 337.5L173.7 302.4V314.1L113.4 351V337.5Z" fill="#C6B5A4"/>
<path id="Vector 11" d="M84.6 309.15L76.5 308.7L124.2 284.4V281.7L131.4 285.3L84.6 309.15Z" fill="#B4A999"/>
<g id="Group 1">
<path id="Rectangle 9" d="M135 282.6L156.6 293.4L111.6 318.6L87.3 306L135 282.6Z" fill="#565656"/>
<path id="Rectangle 10" d="M87.3 306L111.6 318.6V327.6L87.3 314.1V306Z" fill="#4D4D4D"/>
<path id="Rectangle 11" d="M111.6 318.6L156.6 293.4V301.5L111.6 327.6V318.6Z" fill="#454545"/>
</g>
<path id="Vector 12" d="M118.8 327.6H111.6L156.6 301.5V298.35L163.8 301.5L118.8 327.6Z" fill="#B4A999"/>
<path id="Vector 13" d="M132.3 350.55L113.4 351L173.7 314.1V310.5L186.3 315.9L132.3 350.55Z" fill="#65504D"/>
</g>
<g id="Computer">
<path id="Vector 2" d="M325.8 59.4L207 118.8V284.4L325.8 225V186.3V59.4Z" fill="#C6B5A4"/>
<path id="Vector 3" d="M309.6 244.8V233.1L207 284.4V296.1L309.6 244.8Z" fill="#BCAC9C"/>
<path id="Vector 4" d="M235.8 296.1H207L309.6 244.8V233.1L313.2 231.3L337.5 243.9L235.8 296.1Z" fill="#65504D"/>
<path id="Vector 5" d="M87.3 186.3V59.4L91.8 61.2V183.6L87.3 186.3Z" fill="#C6B5A4"/>
<path id="Vector 6" d="M87.3 186.3L91.8 183.6L207 240.3V246.6L87.3 186.3Z" fill="#EEDEC8"/>
<path id="Vector 9" d="M99.9 180V70.2L112.5 77.4V172.8L99.9 180Z" fill="#454545"/>
<path id="Vector 10" d="M203.4 217.8L112.5 172.8L99.9 179.1L203.4 230.4V217.8Z" fill="#565656"/>
<path id="Subtract" fill-rule="evenodd" clip-rule="evenodd" d="M91.8 60.3V183.312L207.9 241.2V118.37L91.8 60.3ZM101.7 75.6L101.248 177.602L202.5 229.5V125.1L101.7 75.6Z" fill="#4D4D4D"/>
<path id="Rectangle 1" d="M111.6 79.2L203.4 124.65V220.05L111.6 174.6V79.2Z" fill="#282828"/>
<path id="Vector 1" d="M207 0L87.3 59.4L207 119.25L325.8 59.4L207 0Z" fill="#EEDEC8"/>
<path id="Rectangle 2" d="M87.3 186.3L207 246.6V285.3L87.3 225V186.3Z" fill="#DBC6B5"/>
<path id="Rectangle 3" d="M95.4 199.8L198.9 251.1L198.763 271.724L95.4 219.637V199.8Z" fill="#9E7063"/>
<path id="Rectangle 4" d="M104.4 211.5L128.7 224.1V228.6L104.4 216V211.5Z" fill="#282828"/>
<path id="Rectangle 5" d="M103.5 232.65L207 283.95V295.65L103.5 244.35V232.65Z" fill="#D0BCAC"/>
</g>
<g id="naut-found">
<path id="4" d="M135.9 133.2V146.453L141.988 149.069V152.382L145.033 153.69V150.377L148.077 151.685V148.371L145.033 147.064V137.124L141.988 135.816V145.756L138.944 144.448V134.508L135.9 133.2Z" fill="#4DC255"/>
<path id="0" d="M160.333 145.837L154.244 143.221V139.908L160.333 142.524V145.837ZM154.244 153.161L151.2 151.853V141.913L154.244 143.221V153.161ZM160.333 159.09L154.244 156.474V153.161L160.333 155.777V159.09ZM163.377 157.085L160.333 155.777V145.837L163.377 147.145V157.085Z" fill="#4DC255"/>
<path id="4_2" d="M166.5 146.7V159.953L172.588 162.569V165.882L175.633 167.19V163.877L178.677 165.185V161.871L175.633 160.564V150.624L172.588 149.316V159.256L169.544 157.948V148.008L166.5 146.7Z" fill="#4DC255"/>
</g>
</g>
</svg>
