<svg viewBox="0 0 290 302" fill="none" xmlns="http://www.w3.org/2000/svg">
<g id="cummie">
<g id="Keyboard">
<path id="Rectangle 8" d="M49.4933 211.893L149.253 259.84L97.44 290L0 240.507L49.4933 211.893Z" fill="#EEDEC8"/>
<g id="Group 2">
<path id="Rectangle 6" d="M51.8133 209.573L106.72 236.64L65.7333 257.52L10.8267 230.453L51.8133 209.573Z" fill="#565656"/>
<path id="Rectangle 7" d="M10.8267 230.453L65.7333 257.52V265.253L10.8267 238.187V230.453Z" fill="#4D4D4D"/>
</g>
<path id="Rectangle 8_2" d="M65.7333 257.52L106.72 236.64V244.373L65.7333 265.253V257.52Z" fill="#454545"/>
<path id="Rectangle 12" d="M0 240.507L97.44 290V301.6L0 251.333V240.507Z" fill="#DBC6B5"/>
<path id="Rectangle 13" d="M97.44 290L149.253 259.84V269.893L97.44 301.6V290Z" fill="#C6B5A4"/>
<path id="Vector 11" d="M72.6933 265.64L65.7333 265.253L106.72 244.373V242.053L112.907 245.147L72.6933 265.64Z" fill="#B4A999"/>
<g id="Group 1">
<path id="Rectangle 9" d="M116 242.827L134.56 252.107L95.8933 273.76L75.0133 262.933L116 242.827Z" fill="#565656"/>
<path id="Rectangle 10" d="M75.0133 262.933L95.8933 273.76V281.493L75.0133 269.893V262.933Z" fill="#4D4D4D"/>
<path id="Rectangle 11" d="M95.8933 273.76L134.56 252.107V259.067L95.8933 281.493V273.76Z" fill="#454545"/>
</g>
<path id="Vector 12" d="M102.08 281.493H95.8933L134.56 259.067V256.36L140.747 259.067L102.08 281.493Z" fill="#B4A999"/>
<path id="Vector 13" d="M113.68 301.214L97.44 301.6L149.253 269.894V266.8L160.08 271.44L113.68 301.214Z" fill="#65504D"/>
</g>
<g id="Computer">
<path id="Vector 2" d="M279.947 51.04L177.867 102.08V244.373L279.947 193.333V160.08V51.04Z" fill="#C6B5A4"/>
<path id="Vector 3" d="M266.027 210.347V200.293L177.867 244.373V254.427L266.027 210.347Z" fill="#BCAC9C"/>
<path id="Vector 4" d="M202.613 254.427H177.867L266.027 210.347V200.293L269.12 198.747L290 209.573L202.613 254.427Z" fill="#65504D"/>
<path id="Vector 5" d="M75.0133 160.08V51.04L78.88 52.5867V157.76L75.0133 160.08Z" fill="#C6B5A4"/>
<path id="Vector 6" d="M75.0133 160.08L78.88 157.76L177.867 206.48V211.893L75.0133 160.08Z" fill="#EEDEC8"/>
<path id="Vector 9" d="M85.84 154.667V60.3199L96.6667 66.5066V148.48L85.84 154.667Z" fill="#454545"/>
<path id="Vector 10" d="M174.773 187.147L96.6667 148.48L85.84 153.893L174.773 197.973V187.147Z" fill="#565656"/>
<path id="Subtract" fill-rule="evenodd" clip-rule="evenodd" d="M78.88 51.8132V157.512L178.64 207.253V101.711L78.88 51.8132ZM87.3866 64.9601L86.9983 152.606L174 197.2V107.493L87.3866 64.9601Z" fill="#4D4D4D"/>
<path id="Rectangle 1" d="M95.8933 68.0533L174.773 107.107V189.08L95.8933 150.027V68.0533Z" fill="#282828"/>
<path id="Vector 1" d="M177.867 0L75.0133 51.04L177.867 102.467L279.947 51.04L177.867 0Z" fill="#EEDEC8"/>
<path id="Rectangle 2" d="M75.0133 160.08L177.867 211.893V245.147L75.0133 193.333V160.08Z" fill="#DBC6B5"/>
<path id="Rectangle 3" d="M81.9733 171.68L170.907 215.76L170.789 233.481L81.9733 188.726V171.68Z" fill="#9E7063"/>
<path id="Rectangle 4" d="M89.7066 181.733L110.587 192.56V196.427L89.7066 185.6V181.733Z" fill="#282828"/>
<path id="Rectangle 5" d="M88.9333 199.907L177.867 243.987V254.04L88.9333 209.96V199.907Z" fill="#D0BCAC"/>
</g>
<g id="naut-found">
<path id="4" d="M116.773 114.453V125.841L122.005 128.089V130.936L124.621 132.06V129.213L127.236 130.336V127.489L124.621 126.366V117.825L122.005 116.701V125.242L119.389 124.118V115.577L116.773 114.453Z" fill="#4DC255"/>
<path id="0" d="M137.767 125.312L132.536 123.064V120.217L137.767 122.465V125.312ZM132.536 131.605L129.92 130.481V121.94L132.536 123.064V131.605ZM137.767 136.7L132.536 134.452V131.605L137.767 133.853V136.7ZM140.383 134.976L137.767 133.853V125.312L140.383 126.436V134.976Z" fill="#4DC255"/>
<path id="4_2" d="M143.067 126.053V137.441L148.298 139.689V142.536L150.914 143.66V140.813L153.53 141.936V139.089L150.914 137.966V129.425L148.298 128.301V136.842L145.682 135.718V127.177L143.067 126.053Z" fill="#4DC255"/>
</g>
</g>
</svg>
