<svg width="211" height="402" viewBox="0 0 211 402" fill="none" xmlns="http://www.w3.org/2000/svg">
<g id="smack">
<g id="server">
<path id="path3204" d="M105.332 367.139L0 306.325L105.329 245.515L210.661 306.327L105.332 367.139Z" fill="#A79889"/>
<g id="g3210">
<g id="g3212">
<path id="path3224" d="M105.332 401.608V367.139H105.334L210.661 306.327V318.167V319.106V340.799L198.862 347.611L197.91 348.159L105.332 401.608Z" fill="#C6B5A4"/>
</g>
</g>
<path id="path3226" d="M0 306.325V340.796L105.332 401.608V367.139L0 306.325" fill="#262864"/>
<path id="path3228" d="M105.334 365.162L1.71036 305.338L0 306.325L105.334 367.139L210.661 306.327L208.948 305.34L105.334 365.162" fill="white"/>
<path id="path3230" d="M194.863 330.484V336.652L121.132 379.221V373.051L194.863 330.484" fill="#9E7063"/>
<path id="path3232" d="M105.332 401.608L12.7504 348.156L11.7988 347.609L0 340.796V306.325L105.332 367.139V401.608ZM7.13402 321.813V332.668L98.1976 385.244V374.387L7.13402 321.813Z" fill="#454545"/>
<path id="path3234" d="M98.1974 385.245L7.13385 332.668V321.813L98.1974 374.388V385.245Z" fill="#282828"/>
<path id="path3236" d="M74.5832 365.308L55.5098 354.294L55.5074 356.568L74.5809 367.582L74.5832 365.308Z" fill="#4DC255"/>
<path id="path3238" d="M52.7598 352.731L47.5906 349.748L47.5883 352.022L52.7575 355.005L52.7598 352.731Z" fill="#4DC255"/>
<path id="path3240" d="M28.5483 338.758L17.9769 332.651L17.9744 334.925L28.546 341.032L28.5483 338.758Z" fill="#4DC255"/>
<path id="path3242" d="M38.1991 344.327L30.5512 339.911V342.186L38.1968 346.603L38.1991 344.327" fill="#4DC255"/>
<path id="path3244" d="M45.3713 348.468L40.2021 345.485L40.1996 347.759L45.3688 350.742L45.3713 348.468Z" fill="#4DC255"/>
<path id="path3246" d="M105.439 277.299L102.094 275.367L105.439 273.438L108.784 275.367L105.439 277.299Z" fill="#76D1CB"/>
<path id="path3248" d="M125.506 288.886L122.162 286.954L125.506 285.022L128.851 286.954L125.506 288.886Z" fill="#76D1CB"/>
<path id="path3250" d="M138.885 296.61L135.54 294.678L138.885 292.747L142.232 294.678L138.885 296.61Z" fill="#76D1CB"/>
<path id="path3252" d="M145.576 300.47L142.232 298.539L145.576 296.61L148.921 298.539L145.576 300.47Z" fill="#76D1CB"/>
<path id="path3254" d="M152.263 304.334L148.921 302.402L152.263 300.471L155.61 302.402L152.263 304.334Z" fill="#76D1CB"/>
<path id="path3256" d="M98.7212 281.176L95.3765 279.247L98.7212 277.313L102.068 279.247L98.7212 281.176Z" fill="#76D1CB"/>
<path id="path3258" d="M105.413 285.039L102.068 283.107L105.413 281.176L108.758 283.107L105.413 285.039Z" fill="#76D1CB"/>
<path id="path3260" d="M112.1 288.9L108.757 286.971L112.1 285.039L115.446 286.971L112.1 288.9Z" fill="#76D1CB"/>
<path id="path3262" d="M118.791 292.763L115.446 290.832L118.791 288.9L122.136 290.832L118.791 292.763Z" fill="#76D1CB"/>
<path id="path3264" d="M125.48 296.624L122.135 294.695L125.48 292.763L128.825 294.695L125.48 296.624Z" fill="#76D1CB"/>
<path id="path3266" d="M132.169 300.487L128.825 298.556L132.169 296.624L135.514 298.556L132.169 300.487Z" fill="#76D1CB"/>
<path id="path3268" d="M138.861 304.348L135.514 302.419L138.861 300.487L142.203 302.419L138.861 304.348Z" fill="#76D1CB"/>
<path id="path3270" d="M145.548 308.211L142.203 306.28L145.548 304.348L148.893 306.28L145.548 308.211Z" fill="#76D1CB"/>
<path id="path3272" d="M152.24 312.072L148.892 310.143L152.24 308.211L155.582 310.143L152.24 312.072Z" fill="#76D1CB"/>
<path id="path3274" d="M92.0059 285.053L88.6613 283.122L92.0059 281.193L95.3504 283.122L92.0059 285.053Z" fill="#76D1CB"/>
<path id="path3276" d="M98.697 288.917L95.35 286.985L98.697 285.053L102.039 286.985L98.697 288.917Z" fill="#76D1CB"/>
<path id="path3278" d="M105.384 292.777L102.039 290.846L105.384 288.917L108.729 290.846L105.384 292.777Z" fill="#76D1CB"/>
<path id="path3280" d="M132.141 308.228L128.799 306.296L132.141 304.365L135.488 306.296L132.141 308.228Z" fill="#76D1CB"/>
<path id="path3282" d="M138.833 312.089L135.488 310.157L138.833 308.228L142.177 310.157L138.833 312.089Z" fill="#76D1CB"/>
<path id="path3284" d="M145.519 315.952L142.177 314.02L145.519 312.089L148.866 314.02L145.519 315.952Z" fill="#76D1CB"/>
<path id="path3286" d="M105.36 300.518L102.013 298.587L105.358 296.655L108.703 298.587L105.36 300.518" fill="#76D1CB"/>
<path id="path3288" d="M112.047 304.379L108.702 302.45L112.047 300.518L115.392 302.45L112.047 304.379Z" fill="#76D1CB"/>
<path id="path3290" d="M118.739 308.242L115.392 306.31L118.739 304.379L122.081 306.31L118.739 308.242Z" fill="#76D1CB"/>
<path id="path3292" d="M132.117 315.966L128.77 314.035L132.117 312.103L135.46 314.035L132.117 315.966Z" fill="#76D1CB"/>
<path id="path3294" d="M138.804 319.829L135.459 317.898L138.804 315.966L142.148 317.898L138.804 319.829Z" fill="#76D1CB"/>
<path id="path3296" d="M78.5748 292.811L75.2303 290.879L78.5748 288.948L81.9171 290.879L78.5748 292.811Z" fill="#76D1CB"/>
<path id="path3298" d="M85.2614 296.672L81.9168 294.74L85.2614 292.811L88.6061 294.74L85.2614 296.672Z" fill="#76D1CB"/>
<path id="path3300" d="M91.9533 300.535L88.6063 298.603L91.9533 296.671L95.2955 298.603L91.9533 300.535Z" fill="#76D1CB"/>
<path id="path3302" d="M98.6399 304.396L95.2977 302.464L98.6399 300.535L101.987 302.464L98.6399 304.396Z" fill="#76D1CB"/>
<path id="path3304" d="M105.332 308.259L101.987 306.327L105.332 304.395L108.676 306.327L105.332 308.259Z" fill="#76D1CB"/>
<path id="path3306" d="M112.019 312.12L108.676 310.188L112.019 308.259L115.366 310.188L112.019 312.12Z" fill="#76D1CB"/>
<path id="path3308" d="M118.71 315.983L115.365 314.051L118.71 312.12L122.055 314.051L118.71 315.983Z" fill="#76D1CB"/>
<path id="path3310" d="M125.4 319.844L122.055 317.912L125.397 315.983L128.744 317.912L125.4 319.844" fill="#76D1CB"/>
<path id="path3312" d="M132.089 323.707L128.744 321.775L132.089 319.844L135.433 321.775L132.089 323.707Z" fill="#76D1CB"/>
<path id="path3314" d="M71.8546 296.686L68.5125 294.754L71.8546 292.825L75.2017 294.757L71.8546 296.686Z" fill="#76D1CB"/>
<path id="path3316" d="M78.5462 300.549L75.2015 298.617L78.5462 296.686L81.8908 298.617L78.5462 300.549Z" fill="#76D1CB"/>
<path id="path3318" d="M91.9248 308.273L88.5802 306.344L91.9248 304.412L95.2695 306.344L91.9248 308.273Z" fill="#76D1CB"/>
<path id="path3320" d="M105.303 315.997L101.958 314.068L105.303 312.136L108.648 314.068L105.303 315.997Z" fill="#76D1CB"/>
<path id="path3322" d="M111.995 319.86L108.648 317.929L111.995 315.997L115.337 317.929L111.995 319.86Z" fill="#76D1CB"/>
<path id="path3324" d="M118.681 323.721L115.339 321.792L118.681 319.86L122.026 321.792L118.681 323.721Z" fill="#76D1CB"/>
<path id="path3326" d="M125.373 327.584L122.026 325.653L125.373 323.721L128.718 325.653L125.373 327.584Z" fill="#76D1CB"/>
<path id="path3328" d="M65.1391 300.563L61.7946 298.634L65.1391 296.702L68.4861 298.634L65.1391 300.563Z" fill="#76D1CB"/>
<path id="path3330" d="M71.8309 304.427L68.4863 302.495L71.8309 300.566L75.1755 302.495L71.8309 304.427Z" fill="#76D1CB"/>
<path id="path3332" d="M85.2093 312.151L81.8624 310.219L85.2093 308.29L88.554 310.219L85.2093 312.151Z" fill="#76D1CB"/>
<path id="path3334" d="M91.8963 316.014L88.5541 314.082L91.8963 312.15L95.2433 314.082L91.8963 316.014Z" fill="#76D1CB"/>
<path id="path3336" d="M111.967 327.601L108.622 325.669L111.967 323.738L115.311 325.669L111.967 327.601Z" fill="#76D1CB"/>
<path id="path3338" d="M58.4239 304.443L55.0793 302.512L58.4239 300.58L61.7685 302.512L58.4239 304.443Z" fill="#76D1CB"/>
<path id="path3340" d="M71.8022 312.167L68.4575 310.236L71.8022 308.304L75.1468 310.236L71.8022 312.167Z" fill="#76D1CB"/>
<path id="path3342" d="M78.4917 316.028L75.1471 314.099L78.4917 312.167L81.8364 314.099L78.4917 316.028Z" fill="#76D1CB"/>
<path id="path3344" d="M85.1807 319.891L81.8362 317.96L85.1807 316.028L88.5253 317.96L85.1807 319.891Z" fill="#76D1CB"/>
<path id="path3346" d="M91.8723 323.752L88.5253 321.823L91.8723 319.891L95.217 321.823L91.8723 323.752Z" fill="#76D1CB"/>
<path id="path3348" d="M98.5593 327.615L95.2171 325.684L98.5593 323.752L101.904 325.684L98.5593 327.615Z" fill="#76D1CB"/>
<path id="path3350" d="M111.938 335.339L108.596 333.41L111.938 331.478L115.283 333.41L111.938 335.339Z" fill="#76D1CB"/>
<path id="path3352" d="M51.7082 308.321L48.3636 306.389L51.7082 304.457L55.0529 306.389L51.7082 308.321Z" fill="#76D1CB"/>
<path id="path3354" d="M65.0869 316.045L61.7422 314.113L65.0869 312.184L68.4315 314.113L65.0869 316.045Z" fill="#76D1CB"/>
<path id="path3356" d="M71.7736 319.905L68.4314 317.976L71.7736 316.045L75.1205 317.976L71.7736 319.905Z" fill="#76D1CB"/>
<path id="path3358" d="M78.4656 323.769L75.121 321.837L78.4656 319.908L81.8102 321.837L78.4656 323.769Z" fill="#76D1CB"/>
<path id="path3360" d="M85.1547 327.632L81.8101 325.7L85.1547 323.769L88.4993 325.7L85.1547 327.632Z" fill="#76D1CB"/>
<path id="path3362" d="M98.5334 335.356L95.1888 333.424L98.5334 331.493L101.878 333.424L98.5334 335.356Z" fill="#76D1CB"/>
<path id="path3364" d="M105.222 339.217L101.878 337.285L105.222 335.356L108.567 337.285L105.222 339.217Z" fill="#76D1CB"/>
<path id="path3366" d="M105.332 309.02L0 248.205L105.329 187.396L210.661 248.208L105.332 309.02Z" fill="#A79889"/>
<g id="g3372">
<g id="g3374">
<path id="path3386" d="M105.332 343.489V309.02H105.334L210.661 248.208V261.096V262.036V282.679L190.179 294.504L175.799 302.807L173.206 304.303L105.332 343.489Z" fill="#C6B5A4"/>
</g>
</g>
<path id="path3388" d="M0 248.206V282.677L105.332 343.489V309.02L0 248.206" fill="#262864"/>
<path id="path3390" d="M105.334 307.043L1.71036 247.218L0 248.205L105.334 309.02L210.661 248.208L208.948 247.221L105.334 307.043" fill="white"/>
<path id="path3392" d="M194.863 272.362V278.533L121.132 321.102V314.931L194.863 272.362Z" fill="#9E7063"/>
<path id="path3394" d="M105.332 343.489L37.4544 304.3L34.8615 302.804L0 282.677V248.206L105.332 309.02V343.489ZM7.13402 263.694V274.549L98.1976 327.123V316.268L7.13402 263.694Z" fill="#454545"/>
<path id="path3396" d="M98.1974 327.123L7.13385 274.549V263.694L98.1974 316.268V327.123Z" fill="#282828"/>
<path id="path3398" d="M74.5832 307.188L55.5098 296.174L55.5074 298.448L74.5809 309.462L74.5832 307.188Z" fill="#4DC255"/>
<path id="path3400" d="M52.7598 294.612L47.5906 291.626L47.5883 293.903L52.7575 296.886L52.7598 294.612Z" fill="#4DC255"/>
<path id="path3402" d="M28.5483 280.636L17.9769 274.532L17.9744 276.806L28.546 282.912L28.5483 280.636Z" fill="#4DC255"/>
<path id="path3404" d="M38.1991 286.207L30.5512 281.792V284.066L38.1968 288.481L38.1991 286.207" fill="#4DC255"/>
<path id="path3406" d="M45.3713 290.349L40.2021 287.365L40.1996 289.64L45.3688 292.623L45.3713 290.349Z" fill="#4DC255"/>
<path id="path3408" d="M105.439 219.177L102.094 217.248L105.439 215.316L108.784 217.248L105.439 219.177Z" fill="#76D1CB"/>
<path id="path3410" d="M125.506 230.766L122.162 228.835L125.506 226.903L128.851 228.835L125.506 230.766Z" fill="#76D1CB"/>
<path id="path3412" d="M138.885 238.49L135.54 236.559L138.885 234.627L142.232 236.559L138.885 238.49Z" fill="#76D1CB"/>
<path id="path3414" d="M145.576 242.351L142.232 240.42L145.576 238.491L148.921 240.42L145.576 242.351Z" fill="#76D1CB"/>
<path id="path3416" d="M152.263 246.214L148.921 244.283L152.263 242.351L155.61 244.283L152.263 246.214Z" fill="#76D1CB"/>
<path id="path3418" d="M98.7212 223.057L95.3765 221.125L98.7212 219.193L102.068 221.125L98.7212 223.057Z" fill="#76D1CB"/>
<path id="path3420" d="M105.413 226.918L102.068 224.986L105.413 223.057L108.758 224.988L105.413 226.918Z" fill="#76D1CB"/>
<path id="path3422" d="M112.1 230.781L108.757 228.849L112.1 226.918L115.446 228.849L112.1 230.781Z" fill="#76D1CB"/>
<path id="path3424" d="M118.791 234.642L115.446 232.712L118.791 230.781L122.136 232.712L118.791 234.642Z" fill="#76D1CB"/>
<path id="path3426" d="M125.48 238.505L122.135 236.576L125.48 234.642L128.825 236.576L125.48 238.505Z" fill="#76D1CB"/>
<path id="path3428" d="M132.169 242.368L128.825 240.436L132.169 238.505L135.514 240.436L132.169 242.368Z" fill="#76D1CB"/>
<path id="path3430" d="M138.861 246.229L135.514 244.3L138.861 242.368L142.203 244.3L138.861 246.229Z" fill="#76D1CB"/>
<path id="path3432" d="M145.548 250.092L142.203 248.16L145.548 246.229L148.893 248.16L145.548 250.092Z" fill="#76D1CB"/>
<path id="path3434" d="M152.24 253.953L148.892 252.024L152.24 250.092L155.582 252.024L152.24 253.953Z" fill="#76D1CB"/>
<path id="path3436" d="M92.0059 226.934L88.6613 225.003L92.0059 223.071L95.3504 225.003L92.0059 226.934Z" fill="#76D1CB"/>
<path id="path3438" d="M98.697 230.795L95.35 228.866L98.697 226.934L102.039 228.866L98.697 230.795Z" fill="#76D1CB"/>
<path id="path3440" d="M105.384 234.658L102.039 232.727L105.384 230.797L108.729 232.727L105.384 234.658Z" fill="#76D1CB"/>
<path id="path3442" d="M132.141 250.106L128.799 248.175L132.141 246.246L135.488 248.175L132.141 250.106Z" fill="#76D1CB"/>
<path id="path3444" d="M138.833 253.969L135.488 252.038L138.833 250.106L142.177 252.038L138.833 253.969Z" fill="#76D1CB"/>
<path id="path3446" d="M145.519 257.833L142.177 255.901L145.519 253.969L148.866 255.901L145.519 257.833Z" fill="#76D1CB"/>
<path id="path3448" d="M105.36 242.399L102.013 240.467L105.358 238.536L108.703 240.467L105.36 242.399" fill="#76D1CB"/>
<path id="path3450" d="M112.047 246.26L108.702 244.328L112.047 242.399L115.392 244.331L112.047 246.26Z" fill="#76D1CB"/>
<path id="path3452" d="M118.739 250.123L115.392 248.191L118.739 246.26L122.081 248.191L118.739 250.123Z" fill="#76D1CB"/>
<path id="path3454" d="M132.117 257.847L128.77 255.915L132.117 253.984L135.46 255.915L132.117 257.847Z" fill="#76D1CB"/>
<path id="path3456" d="M138.804 261.708L135.459 259.779L138.804 257.847L142.148 259.779L138.804 261.708Z" fill="#76D1CB"/>
<path id="path3458" d="M78.5748 234.689L75.2303 232.758L78.5748 230.826L81.9171 232.758L78.5748 234.689Z" fill="#76D1CB"/>
<path id="path3460" d="M85.2614 238.552L81.9168 236.621L85.2614 234.689L88.6061 236.621L85.2614 238.552Z" fill="#76D1CB"/>
<path id="path3462" d="M91.9533 242.413L88.6063 240.484L91.9533 238.552L95.2955 240.484L91.9533 242.413Z" fill="#76D1CB"/>
<path id="path3464" d="M98.6399 246.276L95.2977 244.345L98.6399 242.413L101.987 244.345L98.6399 246.276Z" fill="#76D1CB"/>
<path id="path3466" d="M105.332 250.137L101.987 248.208L105.332 246.276L108.676 248.208L105.332 250.137Z" fill="#76D1CB"/>
<path id="path3468" d="M112.019 254L108.676 252.069L112.019 250.14L115.366 252.069L112.019 254Z" fill="#76D1CB"/>
<path id="path3470" d="M118.71 257.864L115.365 255.932L118.71 254L122.055 255.932L118.71 257.864Z" fill="#76D1CB"/>
<path id="path3472" d="M125.4 261.724L122.055 259.793L125.397 257.864L128.744 259.793L125.4 261.724" fill="#76D1CB"/>
<path id="path3474" d="M132.089 265.587L128.744 263.656L132.089 261.724L135.433 263.656L132.089 265.587Z" fill="#76D1CB"/>
<path id="path3476" d="M71.8546 238.567L68.5125 236.635L71.8546 234.706L75.2017 236.635L71.8546 238.567Z" fill="#76D1CB"/>
<path id="path3478" d="M78.5462 242.43L75.2015 240.498L78.5462 238.566L81.8908 240.498L78.5462 242.43Z" fill="#76D1CB"/>
<path id="path3480" d="M91.9248 250.154L88.5802 248.222L91.9248 246.291L95.2695 248.222L91.9248 250.154Z" fill="#76D1CB"/>
<path id="path3482" d="M105.303 257.878L101.958 255.946L105.303 254.017L108.648 255.949L105.303 257.878Z" fill="#76D1CB"/>
<path id="path3484" d="M111.995 261.741L108.648 259.809L111.995 257.878L115.337 259.809L111.995 261.741Z" fill="#76D1CB"/>
<path id="path3486" d="M118.681 265.602L115.339 263.673L118.681 261.741L122.026 263.673L118.681 265.602Z" fill="#76D1CB"/>
<path id="path3488" d="M125.373 269.465L122.026 267.533L125.373 265.602L128.718 267.533L125.373 269.465Z" fill="#76D1CB"/>
<path id="path3490" d="M65.1391 242.444L61.7946 240.515L65.1391 238.583L68.4861 240.515L65.1391 242.444Z" fill="#76D1CB"/>
<path id="path3492" d="M71.8309 246.307L68.4863 244.376L71.8309 242.444L75.1755 244.376L71.8309 246.307Z" fill="#76D1CB"/>
<path id="path3494" d="M85.2093 254.031L81.8624 252.1L85.2093 250.168L88.554 252.1L85.2093 254.031Z" fill="#76D1CB"/>
<path id="path3496" d="M91.8963 257.892L88.5541 255.963L91.8963 254.031L95.2433 255.963L91.8963 257.892Z" fill="#76D1CB"/>
<path id="path3498" d="M111.967 269.479L108.622 267.548L111.967 265.619L115.311 267.548L111.967 269.479Z" fill="#76D1CB"/>
<path id="path3500" d="M58.4239 246.324L55.0793 244.392L58.4239 242.461L61.7685 244.392L58.4239 246.324Z" fill="#76D1CB"/>
<path id="path3502" d="M71.8022 254.048L68.4575 252.116L71.8022 250.185L75.1468 252.116L71.8022 254.048Z" fill="#76D1CB"/>
<path id="path3504" d="M78.4917 257.909L75.1471 255.977L78.4917 254.048L81.8364 255.977L78.4917 257.909Z" fill="#76D1CB"/>
<path id="path3506" d="M85.1807 261.772L81.8362 259.84L85.1807 257.909L88.5253 259.84L85.1807 261.772Z" fill="#76D1CB"/>
<path id="path3508" d="M91.8723 265.633L88.5253 263.701L91.8723 261.772L95.217 263.701L91.8723 265.633Z" fill="#76D1CB"/>
<path id="path3510" d="M98.5593 269.496L95.2171 267.564L98.5593 265.633L101.904 267.564L98.5593 269.496Z" fill="#76D1CB"/>
<path id="path3512" d="M111.938 277.22L108.596 275.288L111.938 273.357L115.283 275.288L111.938 277.22Z" fill="#76D1CB"/>
<path id="path3514" d="M51.7082 250.199L48.3636 248.27L51.7082 246.338L55.0529 248.27L51.7082 250.199Z" fill="#76D1CB"/>
<path id="path3516" d="M65.0869 257.925L61.7422 255.994L65.0869 254.062L68.4315 255.994L65.0869 257.925Z" fill="#76D1CB"/>
<path id="path3518" d="M71.7736 261.786L68.4314 259.857L71.7736 257.925L75.1205 259.857L71.7736 261.786Z" fill="#76D1CB"/>
<path id="path3520" d="M78.4656 265.649L75.121 263.718L78.4656 261.786L81.8102 263.718L78.4656 265.649Z" fill="#76D1CB"/>
<path id="path3522" d="M85.1547 269.51L81.8101 267.581L85.1547 265.649L88.4993 267.581L85.1547 269.51Z" fill="#76D1CB"/>
<path id="path3524" d="M98.5334 277.234L95.1888 275.305L98.5334 273.373L101.878 275.305L98.5334 277.234Z" fill="#76D1CB"/>
<path id="path3526" d="M105.222 281.097L101.878 279.166L105.222 277.237L108.567 279.166L105.222 281.097Z" fill="#76D1CB"/>
<path id="path3528" d="M105.332 250.898L0 190.086L105.329 129.274L210.661 190.089L105.332 250.898" fill="#EEDEC8"/>
<g id="g3534">
<g id="g3536">
<path id="path3548" d="M105.332 285.37V250.899H105.334L210.661 190.089V224.56L190.179 236.383L175.799 244.687L173.206 246.184L105.332 285.37Z" fill="#C6B5A4"/>
</g>
</g>
<path id="path3550" d="M0 190.086V224.558L105.332 285.37V250.899L0 190.086" fill="#262864"/>
<path id="path3552" d="M105.334 248.924L1.71036 189.099L0 190.086L105.334 250.898L210.661 190.089L208.948 189.099L105.334 248.924" fill="white"/>
<path id="path3554" d="M194.863 214.243V220.414L121.132 262.983V256.812L194.863 214.243Z" fill="#9E7063"/>
<path id="path3556" d="M105.332 285.37L37.4544 246.181L34.8615 244.685L0 224.558V190.086L105.332 250.899V285.37ZM7.13402 205.575V216.429L98.1976 269.004V258.149L7.13402 205.575Z" fill="#454545"/>
<path id="path3558" d="M98.1974 269.004L7.13385 216.429V205.575L98.1974 258.149V269.004Z" fill="#282828"/>
<path id="verse" d="M74.5832 249.069L65.0465 243.562L55.5098 238.055L55.5074 240.329L65.0441 245.836L74.5808 251.343L74.5832 249.069Z" fill="#4DC255"/>
<path id="top" d="M28.5483 222.517L17.9769 216.41L17.9744 218.684L28.546 224.791L28.5483 222.517Z" fill="#4DC255"/>
<g id="bottom">
<path id="path3562" d="M52.7598 236.49L47.5906 233.507L47.5883 235.781L52.7575 238.766L52.7598 236.49Z" fill="#4DC255"/>
<path id="path3568" d="M45.3713 232.227L40.2021 229.244L40.1996 231.52L45.3688 234.504L45.3713 232.227Z" fill="#4DC255"/>
</g>
</g>
<g id="dot-point">
<path id="path3570" d="M104.302 161.488L100.958 159.559L104.302 157.627L107.647 159.559L104.302 161.488Z" fill="#4EC456"/>
<path id="path3572" d="M110.991 165.351L107.647 163.42L110.991 161.488L114.336 163.42L110.991 165.351Z" fill="#282828"/>
<path id="path3574" d="M117.683 169.212L114.336 167.283L117.683 165.351L121.025 167.283L117.683 169.212Z" fill="#73FF7C"/>
<path id="path3576" d="M124.369 173.075L121.025 171.144L124.369 169.212L127.714 171.144L124.369 173.075Z" fill="#4EC456"/>
<path id="path3578" d="M131.061 176.939L127.714 175.007L131.061 173.076L134.403 175.007L131.061 176.939Z" fill="#73FF7C"/>
<path id="path3580" d="M137.748 180.799L134.404 178.87L137.748 176.939L141.095 178.87L137.748 180.799Z" fill="#4EC456"/>
<path id="path3582" d="M144.439 184.663L141.095 182.731L144.439 180.802L147.784 182.731L144.439 184.663Z" fill="#4EC456"/>
<path id="path3584" d="M151.127 188.524L147.784 186.594L151.127 184.663L154.474 186.594L151.127 188.524Z" fill="#4EC456"/>
<path id="path3586" d="M157.818 192.387L154.471 190.455L157.818 188.526L161.163 190.455L157.818 192.387Z" fill="#282828"/>
<path id="path3588" d="M97.5843 165.368L94.2396 163.437L97.5843 161.505L100.931 163.437L97.5843 165.368Z" fill="#4EC456"/>
<path id="path3590" d="M104.276 169.229L100.931 167.297L104.276 165.368L107.621 167.297L104.276 169.229Z" fill="#4EC456"/>
<path id="path3592" d="M110.963 173.092L107.62 171.161L110.963 169.229L114.31 171.161L110.963 173.092Z" fill="#4EC456"/>
<path id="path3594" d="M117.654 176.953L114.31 175.021L117.654 173.092L120.999 175.021L117.654 176.953Z" fill="#4EC456"/>
<path id="path3596" d="M124.343 180.816L120.999 178.884L124.343 176.953L127.688 178.884L124.343 180.816Z" fill="#4EC456"/>
<path id="path3598" d="M131.032 184.677L127.688 182.745L131.032 180.816L134.377 182.745L131.032 184.677Z" fill="#4EC456"/>
<path id="path3600" d="M137.724 188.54L134.377 186.609L137.724 184.677L141.067 186.609L137.724 188.54Z" fill="#4EC456"/>
<path id="path3602" d="M144.411 192.403L141.066 190.469L144.411 188.54L147.756 190.472L144.411 192.403" fill="#4EC456"/>
<path id="path3604" d="M151.103 196.264L147.756 194.332L151.103 192.403L154.445 194.335L151.103 196.264Z" fill="#4EC456"/>
<path id="path3606" d="M90.869 169.246L87.5244 167.314L90.869 165.382L94.2136 167.314L90.869 169.246Z" fill="#4EC456"/>
<path id="path3608" d="M97.5601 173.106L94.2131 171.177L97.5601 169.246L100.902 171.177L97.5601 173.106Z" fill="#4EC456"/>
<path id="path3610" d="M104.247 176.97L100.903 175.038L104.247 173.106L107.592 175.038L104.247 176.97Z" fill="#4EC456"/>
<path id="path3612" d="M110.939 180.83L107.592 178.901L110.939 176.97L114.281 178.901L110.939 180.83Z" fill="#282828"/>
<path id="path3614" d="M117.626 184.694L114.281 182.762L117.626 180.83L120.972 182.762L117.626 184.694Z" fill="#73FF7C"/>
<path id="path3616" d="M124.317 188.554L120.973 186.625L124.317 184.694L127.662 186.625L124.317 188.554Z" fill="#73FF7C"/>
<path id="path3618" d="M131.004 192.418L127.662 190.486L131.004 188.554L134.351 190.486L131.004 192.418Z" fill="#4EC456"/>
<path id="path3620" d="M137.696 196.278L134.351 194.349L137.696 192.418L141.04 194.349L137.696 196.278Z" fill="#4EC456"/>
<path id="path3622" d="M144.383 200.142L141.04 198.21L144.383 196.281L147.73 198.21L144.383 200.142Z" fill="#4EC456"/>
<path id="path3624" d="M84.1532 173.123L80.8087 171.191L84.1532 169.26L87.4979 171.191L84.1532 173.123Z" fill="#73FF7C"/>
<path id="path3626" d="M90.8401 176.986L87.4978 175.055L90.8401 173.123L94.1871 175.055L90.8401 176.986Z" fill="#73FF7C"/>
<path id="path3628" d="M97.5316 180.847L94.187 178.916L97.5316 176.986L100.876 178.916L97.5316 180.847Z" fill="#282828"/>
<path id="path3630" d="M104.223 184.71L100.876 182.779L104.221 180.847L107.566 182.779L104.223 184.71" fill="#4EC456"/>
<path id="path3632" d="M110.91 188.571L107.566 186.639L110.91 184.71L114.255 186.639L110.91 188.571Z" fill="#4EC456"/>
<path id="path3634" d="M117.602 192.434L114.255 190.503L117.602 188.571L120.944 190.503L117.602 192.434Z" fill="#4EC456"/>
<path id="path3636" d="M124.289 196.295L120.944 194.363L124.289 192.434L127.634 194.363L124.289 196.295Z" fill="#73FF7C"/>
<path id="path3638" d="M130.98 200.158L127.633 198.227L130.98 196.295L134.323 198.227L130.98 200.158Z" fill="#4EC456"/>
<path id="path3640" d="M137.667 204.019L134.322 202.088L137.667 200.158L141.012 202.088L137.667 204.019Z" fill="#4EC456"/>
<path id="path3642" d="M77.4378 177L74.0908 175.069L77.4378 173.137L80.7801 175.069L77.4378 177Z" fill="#4EC456"/>
<path id="path3644" d="M84.1246 180.861L80.78 178.932L84.1246 177.001L87.4716 178.932L84.1246 180.861Z" fill="#4EC456"/>
<path id="path3646" d="M90.8163 184.725L87.4717 182.793L90.8163 180.861L94.1585 182.793L90.8163 184.725Z" fill="#4EC456"/>
<path id="path3648" d="M97.503 188.585L94.1608 186.656L97.503 184.725L100.85 186.656L97.503 188.585Z" fill="#4EC456"/>
<path id="path3650" d="M104.195 192.448L100.85 190.519L104.195 188.585L107.54 190.519L104.195 192.448Z" fill="#4EC456"/>
<path id="path3652" d="M110.882 196.312L107.539 194.38L110.882 192.449L114.229 194.38L110.882 196.312Z" fill="#4EC456"/>
<path id="path3654" d="M117.573 200.173L114.229 198.243L117.573 196.312L120.918 198.243L117.573 200.173Z" fill="#4EC456"/>
<path id="path3656" d="M124.263 204.036L120.918 202.104L124.26 200.173L127.607 202.104L124.263 204.036" fill="#4EC456"/>
<path id="path3658" d="M130.952 207.897L127.607 205.967L130.952 204.036L134.296 205.967L130.952 207.897Z" fill="#4EC456"/>
<path id="path3660" d="M70.7202 180.878L67.3755 178.946L70.7202 177.017L74.0648 178.946L70.7202 180.878Z" fill="#4EC456"/>
<path id="path3662" d="M77.4093 184.741L74.0647 182.81L77.4093 180.878L80.754 182.81L77.4093 184.741Z" fill="#4EC456"/>
<path id="path3664" d="M84.1007 188.602L80.7538 186.67L84.0983 184.741L87.4429 186.67L84.1007 188.602" fill="#73FF7C"/>
<path id="path3666" d="M90.788 192.465L87.4434 190.534L90.788 188.602L94.1326 190.534L90.788 192.465Z" fill="#4EC456"/>
<path id="path3668" d="M97.4795 196.326L94.1325 194.394L97.4795 192.465L100.822 194.394L97.4795 196.326Z" fill="#282828"/>
<path id="path3670" d="M104.166 200.189L100.822 198.258L104.166 196.326L107.511 198.258L104.166 200.189Z" fill="#4EC456"/>
<path id="path3672" d="M110.858 204.05L107.511 202.118L110.858 200.189L114.2 202.118L110.858 204.05Z" fill="#4EC456"/>
<path id="path3674" d="M117.545 207.913L114.202 205.982L117.545 204.05L120.889 205.982L117.545 207.913Z" fill="#4EC456"/>
<path id="path3676" d="M124.236 211.776L120.889 209.845L124.236 207.913L127.581 209.845L124.236 211.776Z" fill="#4EC456"/>
<path id="path3678" d="M64.0022 184.755L60.6577 182.826L64.0022 180.895L67.3493 182.826L64.0022 184.755Z" fill="#4EC456"/>
<path id="path3680" d="M70.6941 188.619L67.3494 186.687L70.6941 184.756L74.0387 186.687L70.6941 188.619Z" fill="#4EC456"/>
<path id="path3682" d="M77.3808 192.479L74.0386 190.55L77.3808 188.619L80.7254 190.55L77.3808 192.479Z" fill="#73FF7C"/>
<path id="path3684" d="M84.0723 196.343L80.7277 194.411L84.0723 192.48L87.4169 194.411L84.0723 196.343Z" fill="#4EC456"/>
<path id="path3686" d="M90.7594 200.203L87.4172 198.274L90.7594 196.343L94.1064 198.274L90.7594 200.203Z" fill="#4EC456"/>
<path id="path3688" d="M97.451 204.067L94.1064 202.135L97.451 200.204L100.796 202.135L97.451 204.067Z" fill="#282828"/>
<path id="path3690" d="M104.14 207.928L100.795 205.998L104.138 204.067L107.485 205.998L104.14 207.928" fill="#73FF7C"/>
<path id="path3692" d="M110.83 211.791L107.485 209.859L110.83 207.927L114.174 209.859L110.83 211.791Z" fill="#4EC456"/>
<path id="path3694" d="M117.519 215.651L114.174 213.722L117.519 211.791L120.863 213.722L117.519 215.651Z" fill="#282828"/>
<path id="path3696" d="M57.2871 188.635L53.9424 186.704L57.2871 184.772L60.6317 186.704L57.2871 188.635Z" fill="#4EC456"/>
<path id="path3698" d="M63.9786 192.496L60.6315 190.565L63.9786 188.633L67.3208 190.565L63.9786 192.496Z" fill="#73FF7C"/>
<path id="path3700" d="M70.6653 196.359L67.3207 194.428L70.6653 192.496L74.0099 194.428L70.6653 196.359Z" fill="#4EC456"/>
<path id="path3702" d="M77.3572 200.22L74.0103 198.289L77.3572 196.359L80.6995 198.289L77.3572 200.22Z" fill="#4EC456"/>
<path id="path3704" d="M84.0439 204.083L80.6993 202.152L84.0439 200.22L87.3885 202.152L84.0439 204.083Z" fill="#4EC456"/>
<path id="path3706" d="M90.7356 207.944L87.3885 206.013L90.7356 204.083L94.0803 206.013L90.7356 207.944Z" fill="#4EC456"/>
<path id="path3708" d="M97.4224 211.807L94.0802 209.876L97.4224 207.944L100.767 209.876L97.4224 211.807Z" fill="#4EC456"/>
<path id="path3710" d="M104.114 215.668L100.767 213.737L104.114 211.807L107.459 213.737L104.114 215.668Z" fill="#73FF7C"/>
<path id="path3712" d="M110.801 219.531L107.459 217.6L110.801 215.668L114.146 217.6L110.801 219.531Z" fill="#4EC456"/>
<path id="path3714" d="M50.5714 192.51L47.2267 190.581L50.5714 188.65L53.916 190.581L50.5714 192.51Z" fill="#4EC456"/>
<path id="path3716" d="M57.2586 196.374L53.9163 194.442L57.2586 192.51L60.6056 194.442L57.2586 196.374Z" fill="#282828"/>
<path id="path3718" d="M63.9501 200.234L60.6055 198.305L63.9501 196.374L67.2947 198.305L63.9501 200.234Z" fill="#4EC456"/>
<path id="path3720" d="M70.6367 204.098L67.2946 202.166L70.6367 200.235L73.9837 202.166L70.6367 204.098Z" fill="#4EC456"/>
<path id="path3722" d="M77.3288 207.961L73.9841 206.029L77.3288 204.098L80.6734 206.029L77.3288 207.961Z" fill="#4EC456"/>
<path id="path3724" d="M84.0179 211.822L80.6733 209.893L84.0179 207.961L87.3625 209.893L84.0179 211.822Z" fill="#4EC456"/>
<path id="path3726" d="M90.707 215.685L87.3624 213.753L90.707 211.822L94.0516 213.753L90.707 215.685Z" fill="#73FF7C"/>
<path id="path3728" d="M97.3965 219.546L94.0519 217.616L97.3965 215.685L100.741 217.616L97.3965 219.546Z" fill="#4EC456"/>
<path id="path3730" d="M104.085 223.409L100.741 221.477L104.085 219.546L107.43 221.477L104.085 223.409Z" fill="#4EC456"/>
</g>
<g id="cloud">
<path id="path1684" d="M174.586 16.3801L192.251 26.2599C186.352 22.9609 178.185 23.4266 169.17 28.4355C167.245 29.505 165.361 30.7384 163.53 32.1141L145.864 22.2342C147.696 20.8575 149.58 19.6252 151.503 18.5557C160.518 13.5457 168.687 13.081 174.586 16.3801Z" fill="#D3D3F5"/>
<g id="g1686">
<g id="g1688">
<path id="path1694" d="M162.8 32.1036L145.049 21.7878C146.889 20.3504 148.782 19.0637 150.715 17.9471C154.173 15.9501 157.506 14.6454 160.636 13.9858L178.388 24.3026C175.258 24.9623 171.925 26.2669 168.468 28.2628C166.534 29.3794 164.641 30.6672 162.8 32.1036Z" fill="#D3D3F5"/>
<path id="path1696" d="M178.388 24.3025L160.636 13.9857C165.445 12.9737 169.773 13.4848 173.332 15.3556L191.084 25.6713C187.525 23.8004 183.197 23.2894 178.388 24.3025Z" fill="#D3D3F5"/>
<path id="path1698" d="M191.084 25.6714L173.332 15.3557C173.528 15.4581 173.72 15.5639 173.911 15.6754L191.663 25.9911C191.472 25.8808 191.28 25.7738 191.084 25.6714Z" fill="#D3D3F5"/>
</g>
</g>
<path id="path1700" d="M131.949 3.45907L149.432 14.2728C140.678 8.85886 128.556 9.61998 115.177 17.8412L97.6931 7.02745C111.072 -1.19376 123.195 -1.95605 131.949 3.45907Z" fill="#D3D3F5"/>
<g id="g1702">
<g id="g1704">
<path id="path1710" d="M115.264 17.0195L97.5119 6.7038C102.692 3.71288 107.686 1.75758 112.376 0.768108L130.128 11.085C125.438 12.0744 120.444 14.0297 115.264 17.0195" fill="#D3D3F5"/>
<path id="path1712" d="M130.128 11.085L112.376 0.768122C119.591 -0.752669 126.085 0.0127898 131.427 2.82023L149.18 13.1371C143.837 10.3296 137.343 9.56193 130.128 11.085Z" fill="#D3D3F5"/>
<path id="path1714" d="M149.18 13.137L131.427 2.82015C131.719 2.97437 132.009 3.13422 132.294 3.29969L150.045 13.6154C149.761 13.4499 149.471 13.2901 149.18 13.137Z" fill="#D3D3F5"/>
</g>
</g>
<path id="path1716" d="M67.5376 87.4216L49.522 77.0887C54.8577 49.5742 74.2999 20.3683 97.5187 7.13646L115.534 17.4694C92.315 30.7012 72.8728 59.9082 67.5376 87.4216Z" fill="#D3D3F5"/>
<g id="g1718">
<g id="g1720">
<path id="path1726" d="M67.9691 86.8553L50.2168 76.5396C51.6481 69.0629 54.1087 61.4612 57.3943 54.0891L75.1466 64.406C71.861 71.7769 69.3999 79.3786 67.9691 86.8553" fill="#D3D3F5"/>
<path id="path1728" d="M75.1466 64.4059L57.3943 54.0891C61.6433 44.558 67.2712 35.4107 73.8331 27.4184L91.5854 37.7353C85.023 45.7276 79.3951 54.8737 75.1466 64.4059Z" fill="#D3D3F5"/>
<path id="path1730" d="M91.5855 37.7353L73.8332 27.4184C80.8401 18.8847 88.9133 11.668 97.5119 6.70372L115.264 17.0194C106.666 21.9848 98.5928 29.2015 91.5855 37.7353Z" fill="#D3D3F5"/>
</g>
</g>
<path id="path1732" d="M39.0212 165.923L21.4608 155.72C15.6733 152.357 12.0845 145.207 12.0558 135.043C11.9976 114.586 26.3862 89.6701 44.1946 79.3908C46.1071 78.2865 47.9808 77.397 49.8033 76.7169L67.3632 86.9183C65.5408 87.5996 63.6665 88.489 61.7545 89.5933C43.9457 99.8716 29.5575 124.787 29.6153 145.246C29.644 155.408 33.2328 162.56 39.0212 165.923" fill="#D3D3F5"/>
<g id="g1734">
<g id="g1736">
<g id="g1742">
<path id="path1748" d="M39.3166 166.745L21.5639 156.428C15.713 153.027 12.0849 145.797 12.0558 135.52C12.033 127.594 14.1542 119.006 17.7929 110.842L35.5447 121.159C31.907 129.322 29.7853 137.91 29.8077 145.836C29.8367 156.113 33.4648 163.344 39.3166 166.745Z" fill="#D3D3F5"/>
<path id="path1750" d="M35.5447 121.159L17.7928 110.842C20.6273 104.482 24.3825 98.3812 28.7616 93.05L46.5134 103.367C42.1348 108.698 38.3796 114.799 35.5447 121.159" fill="#D3D3F5"/>
<path id="path1752" d="M46.5134 103.367L28.7615 93.05C33.4331 87.3631 38.814 82.5519 44.5466 79.2436C46.48 78.1269 48.3743 77.2275 50.2167 76.5397L67.969 86.8554C66.1266 87.5443 64.2319 88.4437 62.2989 89.5604C56.5667 92.8687 51.1849 97.6788 46.5134 103.367" fill="#D3D3F5"/>
</g>
</g>
</g>
<path id="path1754" d="M115.309 17.4147C138.177 4.19283 157.428 11.1767 162.821 32.5138C164.66 31.076 166.552 29.7869 168.485 28.6692C186.479 18.2643 201.112 26.6173 201.172 47.3245C201.227 66.7279 188.465 90.091 172.056 101.52L62.5836 165.015C44.5895 175.419 29.9559 167.067 29.897 146.36C29.8386 125.652 44.3768 100.432 62.3713 90.0279C64.3033 88.9101 66.197 88.0098 68.0385 87.3202C73.293 59.8252 92.441 30.6377 115.309 17.4147" fill="#ECECF4"/>
</g>
<g id="recycle">
<path id="Union" fill-rule="evenodd" clip-rule="evenodd" d="M92.89 84.0544C95.8491 73.5653 102.295 63.278 110.325 56.3048C122.589 45.6571 135.162 45.4408 140.225 55.789C140.982 57.3373 140.189 60.098 138.453 61.9536C136.718 63.808 134.696 64.0576 133.939 62.5081C130.235 54.9372 121.031 55.0991 112.056 62.8919C107.18 67.1271 103.101 73.0316 100.616 79.3065L104.83 76.7168L97.0066 98.1262L88.7726 86.5848L92.89 84.0544Z" fill="#3A2C99"/>
<path id="Union_2" fill-rule="evenodd" clip-rule="evenodd" d="M139.841 64.2281L147.648 78.4877L141.273 81.6803C138.145 91.6678 131.845 101.333 124.019 108.006C121.887 109.824 119.728 111.335 117.591 112.531C108.078 117.863 98.9833 117.026 94.5084 109.769C93.6343 108.352 94.3051 105.634 96.0077 103.701C97.7097 101.766 99.798 101.348 100.672 102.767C104.681 109.268 113.765 108.724 122.27 101.47C127.14 97.3179 131.202 91.5826 133.718 85.4635L129.807 87.4216L139.841 64.2281Z" fill="#3A2C99"/>
</g>
</g>
</svg>
